<mxfile host="app.diagrams.net" agent="Mozilla/5.0 (X11; Linux x86_64; rv:128.0) Gecko/20100101 Firefox/128.0" version="28.2.1">
  <diagram name="Page-1" id="n_x79ngTS3c8aQd_qMa7">
    <mxGraphModel dx="872" dy="1583" grid="1" gridSize="10" guides="1" tooltips="1" connect="1" arrows="1" fold="1" page="1" pageScale="1" pageWidth="850" pageHeight="1100" math="0" shadow="0">
      <root>
        <mxCell id="0" />
        <mxCell id="1" parent="0" />
        <mxCell id="DuA_vkoMODH4TliF59db-1" value="&lt;font style=&quot;font-size: 13px;&quot;&gt;&lt;b&gt;router0 /etc/config/firewall&lt;/b&gt;&lt;/font&gt;" style="rounded=0;whiteSpace=wrap;html=1;verticalAlign=bottom;" vertex="1" parent="1">
          <mxGeometry x="120" y="20" width="260" height="370" as="geometry" />
        </mxCell>
        <mxCell id="DuA_vkoMODH4TliF59db-2" value="&lt;font style=&quot;font-size: 13px;&quot;&gt;&lt;b&gt;router1 /etc/config/firewall&lt;/b&gt;&lt;/font&gt;" style="rounded=0;whiteSpace=wrap;html=1;verticalAlign=bottom;" vertex="1" parent="1">
          <mxGeometry x="410" y="20" width="250" height="370" as="geometry" />
        </mxCell>
        <mxCell id="DuA_vkoMODH4TliF59db-8" value="0" style="edgeStyle=orthogonalEdgeStyle;rounded=0;orthogonalLoop=1;jettySize=auto;html=1;" edge="1" parent="1" source="DuA_vkoMODH4TliF59db-3" target="DuA_vkoMODH4TliF59db-7">
          <mxGeometry relative="1" as="geometry" />
        </mxCell>
        <mxCell id="DuA_vkoMODH4TliF59db-3" value="config rule&lt;br&gt;&amp;nbsp;&amp;nbsp;&amp;nbsp; option name &#39;Allow-Ping-Request-Out&#39;&lt;br&gt;&amp;nbsp;&amp;nbsp;&amp;nbsp; &lt;b&gt;option dest &#39;zone0&#39;&lt;/b&gt;&lt;br&gt;&amp;nbsp;&amp;nbsp;&amp;nbsp; option proto &#39;icmp&#39;&lt;br&gt;&amp;nbsp;&amp;nbsp;&amp;nbsp; &lt;b&gt;option icmp_type &#39;echo-request&#39;&lt;/b&gt;&lt;br&gt;&amp;nbsp;&amp;nbsp;&amp;nbsp; option family &#39;ipv4&#39;&lt;br&gt;&amp;nbsp;&amp;nbsp;&amp;nbsp; option target &#39;ACCEPT&#39;" style="rounded=0;whiteSpace=wrap;html=1;align=left;" vertex="1" parent="1">
          <mxGeometry x="130" y="130" width="230" height="110" as="geometry" />
        </mxCell>
        <mxCell id="DuA_vkoMODH4TliF59db-4" value="config zone&lt;br&gt;&amp;nbsp;&amp;nbsp;&amp;nbsp; &lt;b&gt;option name &#39;zone0&#39;&lt;/b&gt;&lt;br&gt;&amp;nbsp;&amp;nbsp;&amp;nbsp; list network &#39;net0&#39;&lt;br&gt;&amp;nbsp;&amp;nbsp;&amp;nbsp; &lt;b&gt;option input &#39;REJECT&#39;&lt;/b&gt;&lt;br&gt;&amp;nbsp;&amp;nbsp;&amp;nbsp; &lt;b&gt;option output &#39;REJECT&#39;&lt;/b&gt;&lt;br&gt;&amp;nbsp;&amp;nbsp;&amp;nbsp; option forward &#39;REJECT&#39;" style="rounded=0;whiteSpace=wrap;html=1;align=left;" vertex="1" parent="1">
          <mxGeometry x="130" y="30" width="160" height="90" as="geometry" />
        </mxCell>
        <mxCell id="DuA_vkoMODH4TliF59db-5" value="config zone&lt;br&gt;&amp;nbsp;&amp;nbsp;&amp;nbsp; &lt;b&gt;option name &#39;zone0&#39;&lt;/b&gt;&lt;br&gt;&amp;nbsp;&amp;nbsp;&amp;nbsp; list network &#39;net0&#39;&lt;br&gt;&amp;nbsp;&amp;nbsp;&amp;nbsp; &lt;b&gt;option input &#39;REJECT&#39;&lt;/b&gt;&lt;br&gt;&amp;nbsp;&amp;nbsp;&amp;nbsp; &lt;b&gt;option output &#39;REJECT&#39;&lt;/b&gt;&lt;br&gt;&amp;nbsp;&amp;nbsp;&amp;nbsp; option forward &#39;REJECT&#39;" style="rounded=0;whiteSpace=wrap;html=1;align=left;" vertex="1" parent="1">
          <mxGeometry x="490" y="30" width="160" height="90" as="geometry" />
        </mxCell>
        <mxCell id="DuA_vkoMODH4TliF59db-7" value="config rule&lt;br&gt;&amp;nbsp;&amp;nbsp;&amp;nbsp; option name &#39;Allow-Ping-Request-In&#39;&lt;br&gt;&amp;nbsp;&amp;nbsp;&amp;nbsp; &lt;b&gt;option src &#39;zone0&#39;&lt;/b&gt;&lt;br&gt;&amp;nbsp;&amp;nbsp;&amp;nbsp; option proto &#39;icmp&#39;&lt;br&gt;&amp;nbsp;&amp;nbsp;&amp;nbsp; &lt;b&gt;option icmp_type &#39;echo-request&#39;&lt;/b&gt;&lt;br&gt;&amp;nbsp;&amp;nbsp;&amp;nbsp; option family &#39;ipv4&#39;&lt;br&gt;&amp;nbsp;&amp;nbsp;&amp;nbsp; option target &#39;ACCEPT&#39;" style="rounded=0;whiteSpace=wrap;html=1;align=left;" vertex="1" parent="1">
          <mxGeometry x="430" y="130" width="220" height="110" as="geometry" />
        </mxCell>
        <mxCell id="DuA_vkoMODH4TliF59db-11" value="1" style="edgeStyle=orthogonalEdgeStyle;rounded=0;orthogonalLoop=1;jettySize=auto;html=1;" edge="1" parent="1" source="DuA_vkoMODH4TliF59db-9" target="DuA_vkoMODH4TliF59db-10">
          <mxGeometry relative="1" as="geometry" />
        </mxCell>
        <mxCell id="DuA_vkoMODH4TliF59db-9" value="config rule&lt;br&gt;&amp;nbsp;&amp;nbsp;&amp;nbsp; option name &#39;Allow-Ping-Reply-Out&#39;&lt;br&gt;&amp;nbsp;&amp;nbsp;&amp;nbsp; &lt;b&gt;option dest &#39;zone0&#39;&lt;/b&gt;&lt;br&gt;&amp;nbsp;&amp;nbsp;&amp;nbsp; option proto &#39;icmp&#39;&lt;br&gt;&amp;nbsp;&amp;nbsp;&amp;nbsp; &lt;b&gt;option icmp_type &#39;echo-reply&#39;&lt;/b&gt;&lt;br&gt;&amp;nbsp;&amp;nbsp;&amp;nbsp; option family &#39;ipv4&#39;&lt;br&gt;&amp;nbsp;&amp;nbsp;&amp;nbsp; option target &#39;ACCEPT&#39;" style="rounded=0;whiteSpace=wrap;html=1;align=left;" vertex="1" parent="1">
          <mxGeometry x="430" y="250" width="220" height="110" as="geometry" />
        </mxCell>
        <mxCell id="DuA_vkoMODH4TliF59db-10" value="config rule&lt;br&gt;&amp;nbsp;&amp;nbsp;&amp;nbsp; option name &#39;Allow-Ping-Reply-In&#39;&lt;br&gt;&amp;nbsp;&amp;nbsp;&amp;nbsp; &lt;b&gt;option src &#39;zone0&#39;&lt;/b&gt;&lt;br&gt;&amp;nbsp;&amp;nbsp;&amp;nbsp; option proto &#39;icmp&#39;&lt;br&gt;&amp;nbsp;&amp;nbsp;&amp;nbsp; &lt;b&gt;option icmp_type &#39;echo-reply&#39;&lt;/b&gt;&lt;br&gt;&amp;nbsp;&amp;nbsp;&amp;nbsp; option family &#39;ipv4&#39;&lt;br&gt;&amp;nbsp;&amp;nbsp;&amp;nbsp; option target &#39;ACCEPT&#39;" style="rounded=0;whiteSpace=wrap;html=1;align=left;" vertex="1" parent="1">
          <mxGeometry x="130" y="250" width="230" height="110" as="geometry" />
        </mxCell>
        <mxCell id="DuA_vkoMODH4TliF59db-12" value="&lt;b&gt;&lt;font style=&quot;font-size: 13px;&quot;&gt;podman exec router0 ping -c3 $router1_ip&lt;/font&gt;&lt;/b&gt;" style="rounded=0;whiteSpace=wrap;html=1;" vertex="1" parent="1">
          <mxGeometry x="120" y="-20" width="540" height="40" as="geometry" />
        </mxCell>
      </root>
    </mxGraphModel>
  </diagram>
</mxfile>
